<?xml version="1.0" encoding="utf-8"?>
<!-- Generator: Adobe Illustrator 23.0.3, SVG Export Plug-In . SVG Version: 6.00 Build 0)  -->
<svg version="1.1" id="ICONS_48x48" xmlns="http://www.w3.org/2000/svg" xmlns:xlink="http://www.w3.org/1999/xlink" x="0px"
	 y="0px" viewBox="0 0 31.5 31.5" style="enable-background:new 0 0 31.5 31.5;" xml:space="preserve">
<style type="text/css">
	.st0{fill:none;stroke:#FFFFFF;stroke-width:1.5;stroke-linecap:round;stroke-linejoin:round;}
</style>
<g>
	<g>
		<path class="st0" d="M30.75,18.36v-5.22l-3.26-0.65c-0.28-1.01-0.78-1.72-1.3-2.61l1.96-2.61l-3.91-3.91l-2.61,1.96
			c-0.89-0.52-1.59-1.03-2.61-1.3l-0.65-3.26h-5.22l-0.65,3.26c-1.01,0.28-1.72,0.78-2.61,1.3L7.27,3.36L3.36,7.27l1.96,2.61
			c-0.48,0.91-1.02,1.64-1.3,2.61l-3.26,0.65v5.22l3.26,0.65c0.33,1.02,0.78,1.72,1.3,2.61l-1.96,2.61l3.91,3.91l2.61-1.96
			c0.89,0.59,1.59,1.03,2.61,1.3l0.65,3.26h5.22l0.65-3.26c1.01-0.28,1.72-0.78,2.61-1.3l2.61,1.96l3.91-3.91l-1.96-2.61
			c0.52-0.89,1.03-1.59,1.3-2.61L30.75,18.36z"/>
		<circle class="st0" cx="15.75" cy="15.75" r="8"/>
	</g>
	<polyline class="st0" points="12.5,16 14.5,18 19,13.5 	"/>
</g>
</svg>
