<?xml version="1.0" encoding="utf-8"?>
<!-- Generator: Adobe Illustrator 23.0.3, SVG Export Plug-In . SVG Version: 6.00 Build 0)  -->
<svg version="1.1" id="ICONS" xmlns="http://www.w3.org/2000/svg" xmlns:xlink="http://www.w3.org/1999/xlink" x="0px" y="0px"
	 viewBox="0 0 31.5 31.5" style="enable-background:new 0 0 31.5 31.5;" xml:space="preserve">
<style type="text/css">
	.st0{fill:none;stroke:#FFFFFF;stroke-width:1.5;stroke-linecap:round;stroke-linejoin:round;}
</style>
<g>
	<g>
		<g>
			<g>
				<path class="st0" d="M8.1,30.75v-2.09c0-2.09,4.12-3.48,7.65-3.48s7.65,1.39,7.65,3.48v2.09"/>
				<path class="st0" d="M16.45,24.12h-1.39c-1.32,0-2.37-0.7-2.99-1.74c-0.31-0.52-0.49-1.09-0.49-1.74v-2.41
					c0-1.94,1.5-3.48,3.48-3.48h1.39c1.98,0,3.48,1.54,3.48,3.48v2.41c0,0.65-0.18,1.21-0.49,1.73
					C18.82,23.42,17.76,24.12,16.45,24.12z"/>
				<path class="st0" d="M11.58,18.23c0,0,2.09-0.92,3.48,0c2.09,1.39,4.87,0.7,4.87,0.7"/>
			</g>
		</g>
	</g>
	<g>
		<polygon class="st0" points="15.75,0.75 17.71,4.66 22.27,5.32 19.01,8.58 19.66,12.49 15.75,10.53 11.84,12.49 12.49,8.58 
			9.23,5.32 13.79,4.66 		"/>
	</g>
	<g>
		<polygon class="st0" points="26.84,6.62 28.14,9.23 30.75,9.88 28.79,11.84 29.45,14.45 26.84,13.14 24.23,14.45 24.88,11.84 
			22.92,9.88 25.53,9.23 		"/>
	</g>
	<g>
		<polygon class="st0" points="4.66,6.62 5.97,9.23 8.58,9.88 6.62,11.84 7.27,14.45 4.66,13.14 2.05,14.45 2.71,11.84 0.75,9.88 
			3.36,9.23 		"/>
	</g>
</g>
</svg>
