<?xml version="1.0" encoding="utf-8"?>
<!-- Generator: Adobe Illustrator 23.0.3, SVG Export Plug-In . SVG Version: 6.00 Build 0)  -->
<svg version="1.1" id="ICONS" xmlns="http://www.w3.org/2000/svg" xmlns:xlink="http://www.w3.org/1999/xlink" x="0px" y="0px"
	 viewBox="0 0 26.26 31.5" style="enable-background:new 0 0 26.26 31.5;" xml:space="preserve">
<style type="text/css">
	.st0{fill:none;stroke:#FFFFFF;stroke-width:1.5;stroke-linecap:round;stroke-linejoin:round;}
</style>
<g id="_x31_4">
	<path id="Line-6-Copy_3_" class="st0" d="M21.75,3.25"/>
	<path id="Line-8_2_" class="st0" d="M16.75,5.04V0.75"/>
	<path id="Line-8_3_" class="st0" d="M13.18,6.46l-2.86-2.86"/>
	<path id="Line-8_4_" class="st0" d="M11.93,10.04H8.36"/>
	<path id="Line-8_8_" class="st0" d="M21.57,10.04h3.57"/>
	<path id="Line-8_9_" class="st0" d="M20.32,6.46l2.86-2.86"/>
	<rect x="0.75" y="17.18" class="st0" width="5.71" height="13.57"/>
	<line class="st0" x1="3.61" y1="20.04" x2="3.61" y2="22.18"/>
	<path id="Path_1_" class="st0" d="M6.46,29.32c5.41,0,12.82,0,15.29,0c2.97,0,5.54-11.43,2.14-11.43h-6.43c0,0,1.16-3.2,1.37-4.6
		c0.44-2.98-0.72-3.97-2.8-3.97c-1.25,0-1.21,0.98-1.66,2.9c-0.44,1.85-1.17,2.47-2.55,3.51c-1.22,0.92-2.22,2.88-3.65,2.88
		c-1.62,0-1.71,0-1.71,0"/>
	<path class="st0" d="M17.46,17.89c0,3.39-0.54,5.71-4.29,5.71"/>
</g>
</svg>
