<?xml version="1.0" encoding="utf-8"?>
<!-- Generator: Adobe Illustrator 23.0.3, SVG Export Plug-In . SVG Version: 6.00 Build 0)  -->
<svg version="1.1" id="Object" xmlns="http://www.w3.org/2000/svg" xmlns:xlink="http://www.w3.org/1999/xlink" x="0px" y="0px"
	 viewBox="0 0 29.97 30" style="enable-background:new 0 0 29.97 30;" xml:space="preserve">
<style type="text/css">
	.st0{fill:#000;}
</style>
<g>
	<path class="st0" d="M14.9,0.83c2.55,0,4.92,0.64,7.12,1.91c2.16,1.25,3.87,2.93,5.15,5.05c1.31,2.2,1.97,4.57,1.97,7.12
		s-0.65,4.93-1.94,7.15c-1.25,2.16-2.93,3.87-5.05,5.14c-2.2,1.31-4.56,1.97-7.09,1.97c-2.52,0-4.9-0.66-7.12-1.97
		c-2.16-1.25-3.87-2.96-5.14-5.11c-1.32-2.22-1.98-4.6-1.98-7.15c0-2.54,0.65-4.92,1.94-7.12C4.02,5.7,5.7,4.02,7.82,2.77
		C10.02,1.48,12.38,0.83,14.9,0.83 M4.45,7.91l3.53-0.06c0.16-0.01,0.31-0.02,0.44-0.02s0.24,0.01,0.34,0.02
		C8.91,7.89,9,7.95,9.05,8.01l0.07,0.06C9.18,8.25,9.19,8.39,9.14,8.5C9.1,8.61,9.04,8.68,8.95,8.72L8.85,8.79
		C8.79,8.83,8.51,8.87,8.01,8.92L7.27,8.98l4.56,13.69l2.75-8.31l-1.91-5.44c-0.12,0.01-0.23,0.01-0.34,0.01
		c-0.32,0-0.58-0.02-0.79-0.07c-0.26-0.04-0.43-0.1-0.53-0.18c-0.1-0.07-0.16-0.16-0.18-0.24v-0.1c-0.02-0.22,0.05-0.37,0.23-0.45
		c0.13-0.04,0.3-0.06,0.52-0.06l0.29,0.03c0.95,0.06,1.88,0.09,2.81,0.09c0.47,0,0.93-0.01,1.4-0.02l1.62-0.06
		c0.13-0.02,0.24-0.03,0.34-0.03c0.1,0,0.18,0.01,0.24,0.03c0.13,0.04,0.23,0.1,0.29,0.16l0.03,0.1c0.04,0.24,0.01,0.42-0.1,0.55
		c-0.08,0.09-0.21,0.15-0.36,0.19h-0.19c-0.24,0.02-0.51,0.04-0.81,0.06c-0.15,0-0.29,0-0.42,0l4.56,13.59l1.36-4.63
		c0.26-0.67,0.45-1.33,0.58-1.97c0.11-0.5,0.18-0.98,0.23-1.46c0-0.32-0.01-0.61-0.03-0.87l-0.03-0.32
		c0.02-0.24-0.06-0.59-0.23-1.07c-0.13-0.32-0.3-0.69-0.52-1.1l-0.29-0.52c-0.28-0.41-0.51-0.8-0.68-1.16
		c-0.13-0.26-0.23-0.5-0.29-0.71l-0.07-0.26c-0.11-0.69-0.05-1.26,0.16-1.71c0.15-0.37,0.41-0.65,0.78-0.84
		c0.24-0.15,0.52-0.25,0.84-0.29l0.42-0.03c-0.86-0.8-1.83-1.47-2.91-2.01c-0.86-0.43-1.78-0.76-2.75-1
		c-0.69-0.17-1.37-0.28-2.04-0.32L15,2.19c-1.36,0.02-2.65,0.24-3.88,0.65c-1.06,0.32-2.05,0.8-2.98,1.42
		C7.41,4.73,6.72,5.29,6.07,5.94C5.62,6.39,5.21,6.86,4.84,7.33L4.45,7.91 M21.31,25.87l0.62-0.39c0.5-0.32,0.98-0.71,1.46-1.17
		c0.67-0.6,1.27-1.27,1.81-2.01c0.65-0.91,1.17-1.88,1.58-2.91l0.19-0.58c0.15-0.47,0.28-0.99,0.39-1.55
		c0.13-0.78,0.19-1.55,0.19-2.33c0-0.97-0.11-1.93-0.32-2.88c-0.26-1.1-0.66-2.17-1.2-3.2L26.1,9.6c0.04,0.63,0.02,1.24-0.07,1.84
		c-0.11,0.88-0.32,1.7-0.65,2.46L21.31,25.87 M9.47,26.29L3.45,9.73c-0.47,1.14-0.79,2.35-0.94,3.62c-0.11,1.01-0.1,2.04,0.03,3.07
		c0.07,0.75,0.19,1.48,0.39,2.17c0.09,0.26,0.17,0.53,0.26,0.81c0.41,0.97,0.91,1.88,1.49,2.72c0.5,0.71,1.06,1.37,1.68,1.97
		c0.47,0.48,0.98,0.91,1.52,1.29c0.39,0.26,0.77,0.49,1.13,0.68L9.47,26.29 M14.92,27.6c0.6,0,1.21-0.05,1.83-0.15
		c0.6-0.09,1.17-0.22,1.71-0.39l0.65-0.23L15.19,16l-3.75,11.03c0.91,0.3,1.86,0.48,2.88,0.55C14.52,27.6,14.72,27.6,14.92,27.6
		 M14.9,0C12.24,0,9.72,0.69,7.4,2.06C5.17,3.37,3.37,5.17,2.06,7.4C0.69,9.72,0,12.25,0,14.93c0,2.68,0.7,5.23,2.09,7.57
		c1.34,2.27,3.17,4.09,5.44,5.41C9.87,29.3,12.4,30,15.07,30c2.66,0,5.19-0.7,7.51-2.09c2.23-1.34,4.02-3.17,5.34-5.44
		c1.36-2.34,2.05-4.88,2.05-7.57c0-2.68-0.7-5.22-2.09-7.54c-1.34-2.23-3.17-4.02-5.44-5.34C20.12,0.68,17.58,0,14.9,0L14.9,0z
		 M6.16,7.05c0.16-0.18,0.33-0.35,0.5-0.53c0.6-0.6,1.25-1.13,1.94-1.57c0.86-0.58,1.79-1.03,2.77-1.33
		c1.16-0.39,2.39-0.59,3.65-0.61l0.76,0.03c0.6,0.04,1.23,0.14,1.87,0.3c0.91,0.22,1.77,0.54,2.58,0.94
		c0.54,0.27,1.05,0.57,1.53,0.91c-0.49,0.28-0.84,0.69-1.05,1.2c-0.27,0.56-0.35,1.3-0.22,2.16L20.5,8.6l0.01,0.04l0.07,0.26
		c0.09,0.31,0.21,0.59,0.36,0.88c0.18,0.38,0.41,0.79,0.71,1.23l0.27,0.49c0.19,0.37,0.36,0.71,0.47,1
		c0.18,0.51,0.17,0.68,0.17,0.69l-0.01,0.07l0.01,0.08l0.03,0.32c0.02,0.21,0.03,0.47,0.03,0.76c-0.04,0.42-0.11,0.86-0.21,1.32
		c-0.12,0.62-0.31,1.24-0.54,1.85l-0.01,0.03l-0.01,0.03l-0.62,2.1L17.85,9.69c0.04,0,0.09-0.01,0.13-0.01h0.16h0.12l0.11-0.03
		c0.29-0.08,0.53-0.22,0.71-0.41l0.03-0.03l0.02-0.03c0.19-0.23,0.39-0.63,0.27-1.23L19.4,7.9l-0.02-0.05l-0.03-0.1l-0.06-0.2
		l-0.15-0.14c-0.16-0.16-0.36-0.27-0.61-0.36c-0.15-0.05-0.31-0.07-0.5-0.07c-0.13,0-0.27,0.01-0.42,0.04l-1.57,0.06
		c-0.45,0.01-0.9,0.02-1.36,0.02c-0.91,0-1.84-0.03-2.76-0.08l-0.25-0.03l-0.04,0h-0.04c-0.31,0-0.57,0.04-0.78,0.11l-0.05,0.02
		l-0.05,0.02C10.25,7.35,10,7.76,9.99,8.25c-0.01-0.15-0.05-0.3-0.1-0.46L9.83,7.62L9.69,7.49L9.67,7.46
		C9.51,7.27,9.29,7.14,8.99,7.05L8.92,7.03L8.85,7.03C8.72,7.01,8.58,7,8.42,7C8.27,7,8.11,7.01,7.93,7.02L6.16,7.05L6.16,7.05z
		 M9.38,9.43C9.63,9.29,9.81,9.07,9.92,8.8C9.97,8.67,9.99,8.54,10,8.41v0.03v0.1l0.02,0.1c0.05,0.19,0.17,0.46,0.48,0.71
		C10.71,9.5,11,9.6,11.4,9.67c0.18,0.04,0.41,0.07,0.69,0.08l1.62,4.61l-1.88,5.68L8.38,9.71C8.91,9.66,9.13,9.6,9.31,9.48
		L9.38,9.43L9.38,9.43z M3.97,19.11c-0.08-0.27-0.17-0.53-0.25-0.79c-0.17-0.59-0.29-1.27-0.35-1.98c-0.12-1-0.13-1.97-0.03-2.91
		c0.04-0.37,0.1-0.74,0.18-1.1l4.36,12.01c-0.32-0.26-0.64-0.54-0.93-0.83c-0.59-0.57-1.12-1.2-1.59-1.86
		C4.82,20.87,4.36,20.02,3.97,19.11L3.97,19.11z M26.16,14.2c0.16-0.38,0.3-0.78,0.41-1.19c0.1,0.64,0.15,1.28,0.15,1.93
		c0,0.72-0.06,1.46-0.18,2.19c-0.1,0.51-0.22,1-0.36,1.44l-0.19,0.57c-0.37,0.93-0.87,1.85-1.47,2.69
		c-0.46,0.63-0.98,1.21-1.55,1.74L26.16,14.2L26.16,14.2z M12.51,26.48l2.71-7.97l2.83,7.82c-0.43,0.13-0.91,0.23-1.41,0.31
		c-0.58,0.09-1.15,0.14-1.71,0.14c-0.19,0-0.37,0-0.56-0.02C13.73,26.72,13.1,26.62,12.51,26.48L12.51,26.48z"/>
</g>
</svg>
