<svg id="Object" xmlns="http://www.w3.org/2000/svg" viewBox="0 0 22 30"><path d="M469.55,616.54H457.07a.82.82,0,0,0-.82.82v10.21h-7.06V610.2H460.9v4.38a.41.41,0,0,0,.41.41.41.41,0,0,0,.41-.41v-4.79a.41.41,0,0,0-.41-.41H448.78a.4.4,0,0,0-.4.41v22a.4.4,0,0,0,.4.41h7.47v6.34a.83.83,0,0,0,.82.83h12.48a.83.83,0,0,0,.83-.83V617.36A.82.82,0,0,0,469.55,616.54Zm0,.81v17.38H457.07V617.35Zm-20.37,14v-3h7.06v1.09h-2.09a.41.41,0,0,0-.41.41.41.41,0,0,0,.41.41h2.09v1.12Zm7.88,7.16v-3h12.49v3Z" transform="translate(-448.38 -609.38)"/><path d="M464.2,636.64h-1.78a.41.41,0,1,0,0,.81h1.78a.41.41,0,1,0,0-.81Z" transform="translate(-448.38 -609.38)"/></svg>