<svg id="Object" xmlns="http://www.w3.org/2000/svg" viewBox="0 0 33.14 30"><path d="M680.87,301.82a.53.53,0,0,0-.16-.72l-4.5-2.91a.51.51,0,0,0-.71.14l-3.3,4.9V296a.54.54,0,0,0-.15-.38l-6.52-6.27a.47.47,0,0,0-.35-.15H648.32a.51.51,0,0,0-.51.52v29a.51.51,0,0,0,.51.51h23.37a.51.51,0,0,0,.51-.51v-3.12a.46.46,0,0,0,0-.21v-.17Zm-15.18-10.91,4.72,4.55h-4.2a.52.52,0,0,1-.52-.52Zm5.48,25.41v1.83H648.84V290.21h15.82V296a.51.51,0,0,0,.52.51h5.53l.14,0h.32v6.45h0v1.84l-4.72,7a.5.5,0,0,0-.09.24l-.39,4.25a.51.51,0,0,0,.57.56Zm.25-1.9h0v.05l-.43.65a.54.54,0,0,1-.37.23l-2.91.32a.52.52,0,0,1-.57-.56l.25-2.73a.58.58,0,0,1,.09-.25l8.34-12.38a.52.52,0,0,1,.71-.15l2.79,1.81a.51.51,0,0,1,.15.71Z" transform="translate(-647.81 -289.18)"/></svg>