<svg id="Object" xmlns="http://www.w3.org/2000/svg" viewBox="0 0 35 30"><path d="M421.15,655.09H397.29a1,1,0,0,0-1,1v4.72a.47.47,0,1,0,.94,0V656h24.12V670.5H403a.48.48,0,0,0,0,1h18.38v2.31H402.64a.47.47,0,0,0-.47.47.48.48,0,0,0,.47.48h2.93v3.43H403.4a.47.47,0,0,0-.47.47.48.48,0,0,0,.47.48h11.7a.48.48,0,0,0,.47-.48.47.47,0,0,0-.47-.47H413v-3.43h8.31a1,1,0,0,0,1-1V656.21A1.12,1.12,0,0,0,421.15,655.09Zm-9.11,23h-5.53v-3.43H412Z" transform="translate(-387.27 -655.09)"/><path d="M399.33,663.09H388.21a.93.93,0,0,0-.94.92v20.15a.94.94,0,0,0,.94.93h11.12a.94.94,0,0,0,.94-.93V664A.93.93,0,0,0,399.33,663.09Zm0,21.07H388.2v-2.74h11.14Zm0-3.67H388.2V664h11.14Z" transform="translate(-387.27 -655.09)"/><path d="M393,683.24h1.58a.46.46,0,0,0,.46-.46.47.47,0,0,0-.46-.46H393a.47.47,0,0,0-.46.46A.46.46,0,0,0,393,683.24Z" transform="translate(-387.27 -655.09)"/></svg>